<?xml version="1.0" standalone="no"?>
<!DOCTYPE svg PUBLIC "-//W3C//DTD SVG 20010904//EN"
 "http://www.w3.org/TR/2001/REC-SVG-20010904/DTD/svg10.dtd">
<svg version="1.0" xmlns="http://www.w3.org/2000/svg"
 width="1161.000000pt" height="1152.000000pt" viewBox="0 0 1161.000000 1152.000000"
 preserveAspectRatio="xMidYMid meet">
<metadata>
Created by potrace 1.15, written by Peter Selinger 2001-2017
</metadata>
<g transform="translate(0.000000,1152.000000) scale(0.100000,-0.100000)"
fill="#000000" stroke="none">
<path d="M5452 11510 c-648 -43 -1253 -180 -1847 -420 -176 -71 -559 -260
-730 -360 -711 -418 -1327 -982 -1800 -1645 -531 -744 -883 -1617 -1014 -2510
-71 -485 -80 -1039 -25 -1525 186 -1657 1086 -3156 2472 -4117 625 -433 1343
-740 2109 -903 79 -16 150 -30 158 -30 13 0 15 271 15 2410 l0 2409 38 8 c72
14 470 8 602 -11 459 -62 780 -204 1031 -455 208 -208 318 -423 390 -763 249
-1179 567 -2439 752 -2983 56 -164 128 -340 146 -358 21 -21 428 148 720 299
1567 812 2683 2293 3025 4014 282 1419 33 2881 -702 4115 -353 593 -830 1138
-1377 1574 -894 714 -1964 1138 -3130 1241 -164 15 -670 21 -833 10z m588
-1100 c1671 -106 2934 -794 3753 -2045 408 -624 712 -1445 802 -2166 51 -417
37 -915 -40 -1356 -164 -944 -643 -1851 -1350 -2558 -154 -155 -332 -312 -342
-302 -13 14 -228 846 -287 1112 -20 88 -47 232 -60 320 -46 299 -98 503 -188
745 -153 410 -386 782 -673 1077 l-111 113 86 46 c455 246 767 621 934 1122
91 275 121 490 113 806 -8 320 -47 552 -138 831 -307 936 -1139 1505 -2383
1630 -344 35 -636 28 -1536 -35 -547 -39 -1066 -99 -1212 -140 l-38 -11 0
-4004 c0 -2203 -3 -4005 -7 -4005 -12 0 -212 138 -348 240 -739 555 -1274
1248 -1598 2070 -160 406 -263 833 -314 1300 -26 243 -23 651 6 850 161 1110
530 2016 1113 2731 115 143 358 391 503 516 601 519 1339 867 2188 1033 400
77 759 103 1127 80z m-114 -1741 c559 -54 948 -314 1139 -758 141 -330 152
-704 30 -1041 -66 -182 -161 -330 -299 -465 -160 -156 -339 -255 -571 -316
-206 -53 -292 -59 -891 -59 l-544 0 0 1320 0 1320 303 3 c166 1 397 3 513 5
116 1 260 -3 320 -9z"/>
</g>
</svg>
